<?xml version="1.0" standalone="no"?>
<!DOCTYPE svg PUBLIC "-//W3C//DTD SVG 20010904//EN"
 "http://www.w3.org/TR/2001/REC-SVG-20010904/DTD/svg10.dtd">
<svg version="1.0" xmlns="http://www.w3.org/2000/svg"
 width="969.000000pt" height="1080.000000pt" viewBox="0 0 969.000000 1080.000000"
 preserveAspectRatio="xMidYMid meet">
<metadata>
Created by potrace 1.16, written by Peter Selinger 2001-2019
</metadata>
<g transform="translate(0.000000,1080.000000) scale(0.100000,-0.100000)"
fill="#000000" stroke="none">
<path d="M4705 9686 c-160 -26 -358 -88 -460 -144 -40 -22 -55 -38 -77 -82
-31 -62 -73 -212 -115 -408 -26 -122 -30 -132 -48 -127 -292 84 -419 97 -517
53 -93 -43 -133 -117 -133 -243 1 -187 117 -413 276 -537 32 -25 97 -66 143
-89 l84 -43 4 -111 c3 -99 6 -116 28 -147 25 -37 64 -66 106 -77 20 -5 30 -24
64 -121 50 -145 124 -292 200 -398 l59 -82 -49 -46 c-44 -41 -110 -148 -110
-178 0 -7 -25 -27 -55 -45 l-54 -33 -56 27 -55 27 -115 -20 c-130 -23 -164
-41 -191 -103 -11 -23 -27 -41 -39 -44 -11 -3 -57 -13 -102 -23 l-83 -19 1 46
c1 25 4 72 8 104 l6 59 110 56 c106 55 111 59 137 112 35 70 51 149 46 219 -4
48 -33 114 -190 437 -101 209 -202 407 -224 439 -164 248 -426 378 -729 362
-164 -8 -230 -28 -308 -93 -125 -104 -231 -258 -283 -410 -32 -95 -43 -262
-25 -367 20 -113 52 -193 237 -578 136 -283 188 -382 217 -412 54 -55 156
-100 236 -105 60 -4 70 -2 162 43 l97 48 90 -61 c50 -34 96 -62 104 -62 7 0
-28 -42 -78 -92 -169 -172 -293 -340 -399 -541 -69 -131 -94 -189 -236 -557
-110 -286 -119 -305 -143 -308 -35 -4 -45 -22 -106 -182 -144 -374 -144 -377
-97 -401 12 -6 23 -12 24 -13 1 -1 -4 -22 -11 -46 -47 -155 -23 -324 75 -527
42 -88 44 -93 30 -93 -13 0 -293 -99 -310 -109 -11 -7 12 -37 97 -130 117
-127 319 -361 413 -477 l56 -69 7 -420 c3 -231 9 -440 12 -465 l6 -46 247 83
c748 250 1515 367 2291 350 736 -17 1408 -137 2096 -375 l172 -59 6 46 c3 25
9 236 12 468 l7 421 124 149 c69 81 199 231 290 332 123 137 162 186 152 192
-17 10 -297 109 -310 109 -14 0 -12 4 30 88 67 134 94 232 95 352 1 59 -5 129
-13 161 -13 55 -13 56 13 82 14 14 26 33 26 41 0 31 -166 468 -194 511 -10 15
-26 25 -41 25 -20 0 -27 9 -45 58 -70 187 -210 543 -251 640 -114 266 -282
512 -488 717 -50 49 -91 93 -91 97 0 5 37 -11 83 -34 73 -37 91 -42 167 -46
109 -5 177 18 254 89 59 54 31 2 510 931 135 262 246 484 246 493 0 9 -5 25
-10 35 -8 16 -15 17 -38 9 -23 -8 -73 -99 -371 -679 -189 -368 -357 -685 -373
-704 -41 -51 -129 -91 -198 -90 -55 0 -150 29 -150 45 0 9 435 897 658 1346
101 202 110 225 101 252 -10 28 -12 29 -41 19 -33 -12 1 55 -614 -1197 -102
-206 -186 -376 -188 -378 -2 -2 -58 23 -124 55 -66 33 -126 62 -132 64 -9 3
114 274 359 794 204 435 371 793 371 797 0 3 -4 17 -10 31 -8 23 -12 24 -38
15 -26 -9 -41 -34 -120 -202 -49 -106 -215 -457 -367 -782 -152 -324 -280
-594 -285 -598 -10 -11 -78 24 -114 59 -16 16 -40 53 -54 83 -21 45 -24 63
-19 120 4 60 32 127 316 759 281 627 309 695 299 718 -10 21 -17 24 -37 19
-14 -4 -29 -9 -32 -13 -4 -4 -147 -322 -320 -707 l-313 -700 -1 -90 c0 -82 3
-97 32 -155 37 -76 77 -118 153 -159 30 -17 51 -31 45 -30 -16 0 -136 26 -139
30 -2 2 -13 22 -24 45 -29 57 -59 73 -180 95 -115 21 -158 18 -198 -14 l-26
-20 -45 24 c-55 30 -65 42 -87 101 -20 54 -73 127 -110 152 l-27 17 35 42 c91
113 178 274 243 456 37 99 39 104 76 116 92 31 126 97 127 240 l0 101 68 33
c191 94 310 229 388 441 23 63 27 92 28 180 1 90 -2 111 -21 146 -71 133 -209
159 -478 89 -77 -20 -146 -38 -154 -38 -9 -2 -23 41 -47 148 -88 395 -107 436
-228 489 -233 103 -524 153 -711 122z m243 -96 c162 -21 439 -107 483 -151 23
-23 60 -144 109 -361 22 -95 40 -176 40 -180 0 -3 -16 -12 -36 -18 -33 -11
-42 -9 -115 24 -164 75 -347 109 -589 108 -244 0 -420 -33 -578 -108 -65 -31
-77 -34 -106 -24 l-34 11 29 133 c33 158 52 232 85 337 l24 78 63 29 c85 40
235 87 337 106 156 28 179 29 288 16z m-1207 -700 c65 -12 371 -101 366 -107
-2 -2 -55 10 -118 26 -198 51 -299 51 -373 -2 -30 -21 -66 -88 -65 -122 0 -13
7 -6 18 20 36 79 84 105 196 105 89 0 151 -13 410 -84 517 -142 763 -148 1205
-30 74 20 194 52 265 71 133 36 271 52 339 39 46 -9 94 -49 117 -100 l19 -41
-6 35 c-9 51 -47 104 -91 125 -42 21 -131 25 -223 12 -78 -12 -60 -3 55 28
119 32 270 44 315 25 45 -19 71 -62 77 -128 13 -141 -94 -371 -220 -470 -65
-52 -174 -114 -193 -110 -31 6 -25 23 19 50 94 60 181 178 217 297 11 35 20
71 19 80 0 9 -9 -9 -18 -40 -27 -85 -81 -178 -136 -234 -55 -56 -138 -110
-155 -100 -22 13 -10 68 26 117 42 57 84 151 83 188 0 18 -6 11 -18 -26 -24
-67 -45 -105 -77 -144 l-28 -32 -17 63 c-10 35 -15 75 -13 89 4 18 3 21 -4 11
-15 -21 -24 3 -16 44 6 33 4 36 -32 51 -55 23 -135 14 -361 -40 -415 -100
-564 -99 -994 4 -121 30 -198 43 -254 44 l-80 1 -1 -50 c-1 -27 -8 -65 -16
-84 l-15 -33 -16 38 c-9 22 -16 31 -16 21 -1 -10 5 -32 13 -51 10 -24 11 -47
5 -86 -4 -29 -10 -55 -13 -57 -16 -17 -146 196 -146 239 0 9 -4 20 -10 23 -18
11 1 -58 36 -131 19 -40 54 -94 79 -122 43 -48 56 -84 35 -97 -18 -11 -134 59
-190 115 -59 59 -112 149 -142 239 l-18 56 5 -45 c8 -66 77 -201 139 -267 30
-32 82 -75 117 -95 46 -27 58 -39 46 -44 -28 -10 -166 75 -243 151 -116 115
-186 266 -188 405 -1 83 16 124 63 153 30 19 138 23 222 7z m733 -467 l71 -8
-105 -6 c-111 -6 -181 -30 -223 -77 l-19 -21 53 14 c94 25 177 28 281 10 111
-19 135 -13 145 36 l6 29 173 0 c145 0 174 -2 174 -14 0 -8 10 -27 23 -41 l23
-27 103 17 c87 15 116 16 192 6 49 -6 100 -16 114 -21 39 -15 31 6 -14 36 -59
38 -124 54 -230 55 l-96 1 115 17 c63 10 148 26 189 36 l74 18 19 -22 c29 -36
41 -99 34 -181 -20 -254 -20 -266 1 -281 29 -20 37 -106 17 -183 -67 -268
-183 -492 -340 -655 -138 -145 -251 -201 -402 -201 -57 1 -105 7 -138 18 -248
86 -483 409 -585 805 -24 94 -23 189 3 210 26 20 28 55 12 200 -16 146 -11
212 21 260 l15 23 112 -23 c61 -12 143 -26 182 -30z m-1649 -27 c155 -43 306
-155 399 -295 25 -37 127 -236 226 -441 144 -299 180 -382 180 -415 0 -50 -26
-141 -43 -151 -6 -4 -9 -4 -5 0 9 11 -29 96 -50 112 -22 17 -130 54 -157 54
-12 0 -69 -23 -126 -51 -57 -28 -117 -55 -133 -60 -36 -10 -81 8 -118 47 -15
16 -95 169 -177 339 -83 171 -187 378 -232 460 -45 83 -98 180 -118 217 -20
38 -40 68 -44 68 -5 0 -57 -49 -115 -108 -112 -114 -227 -280 -218 -315 2 -9
0 -15 -4 -12 -8 5 -34 -55 -43 -100 -3 -11 -5 12 -6 50 -2 128 46 267 134 390
44 62 189 204 209 206 6 0 38 7 71 14 79 19 288 13 370 -9z m1192 -258 c-11
-48 -29 -248 -25 -282 5 -45 -6 -46 -32 -3 -16 26 -20 50 -20 130 0 102 12
146 47 166 28 16 36 13 30 -11z m1718 6 c33 -22 45 -64 45 -161 0 -89 -17
-146 -47 -157 -13 -5 -14 -1 -10 24 4 16 0 85 -8 152 -21 176 -22 169 20 142z
m-1351 -1434 c22 -60 77 -138 121 -173 20 -16 64 -41 97 -56 l61 -28 -79 -42
c-43 -22 -88 -41 -99 -41 -36 0 -120 46 -154 85 -59 68 -66 93 -66 265 0 169
6 195 61 259 l29 35 6 -130 c4 -81 13 -146 23 -174z m991 264 c43 -56 55 -112
55 -259 0 -159 -14 -209 -75 -271 -30 -29 -60 -48 -100 -60 l-57 -18 -84 44
-83 44 68 33 c87 42 170 128 202 210 17 46 23 85 27 186 2 70 8 127 12 127 4
0 20 -16 35 -36z m-725 -101 c60 -25 75 -28 200 -28 149 0 189 10 303 79 l57
35 0 -75 c0 -41 -5 -94 -11 -118 -16 -66 -75 -136 -144 -171 -58 -29 -61 -30
-209 -30 -145 0 -153 1 -208 28 -112 55 -158 140 -158 289 l0 88 53 -35 c28
-19 81 -47 117 -62z m-463 -403 c54 -114 150 -188 271 -210 l63 -11 146 78
c81 43 155 82 164 87 14 6 58 -13 179 -79 l161 -87 58 10 c206 37 335 216 319
443 -3 52 4 59 38 34 l21 -14 -58 -338 c-31 -186 -72 -425 -90 -530 l-33 -193
-583 0 c-428 0 -583 3 -583 11 0 13 -167 992 -175 1026 -4 16 3 26 28 42 l32
20 5 -112 c5 -98 9 -120 37 -177z m-502 -170 c28 -165 49 -300 48 -300 -2 0
-36 66 -74 146 -59 121 -77 150 -109 172 -36 25 -38 30 -33 63 4 26 -3 55 -26
109 -30 73 -30 88 4 90 6 1 37 7 70 14 33 7 62 12 64 10 2 -2 27 -139 56 -304z
m2470 289 c33 -7 61 -13 63 -14 1 -1 -12 -32 -29 -70 -22 -48 -30 -80 -28
-111 3 -37 -1 -46 -27 -66 -41 -31 -51 -47 -117 -178 -31 -63 -55 -104 -53
-90 2 14 23 138 46 275 23 138 43 256 46 263 2 7 12 11 21 8 10 -2 45 -10 78
-17z m456 -267 c196 -207 351 -445 453 -693 61 -148 226 -590 226 -605 0 -10
-14 -14 -54 -14 -80 0 -269 -35 -366 -68 -104 -36 -211 -89 -272 -135 l-45
-34 -56 22 c-31 13 -79 36 -106 51 -46 24 -53 33 -81 101 -38 90 -39 82 36
363 30 112 54 224 54 248 0 55 -16 85 -90 171 l-59 69 79 165 c70 145 80 172
80 220 0 46 3 57 20 62 26 8 68 60 87 107 8 21 19 38 23 38 4 0 36 -30 71 -68z
m-3378 -72 c29 -18 32 -24 33 -72 1 -45 14 -80 84 -225 l83 -172 -57 -61 c-78
-84 -90 -111 -82 -179 3 -31 28 -139 56 -241 67 -248 69 -267 33 -355 -32 -76
-47 -88 -186 -150 l-55 -24 -44 33 c-146 109 -377 187 -600 202 -54 4 -98 11
-98 16 0 11 132 362 200 533 126 318 268 544 468 748 l76 78 28 -56 c17 -33
41 -63 61 -75z m266 -7 c11 -10 50 -79 85 -155 l64 -136 -51 -36 c-29 -20 -61
-43 -73 -51 -20 -15 -22 -11 -92 133 -88 180 -91 211 -27 245 39 21 68 21 94
0z m2781 2 c32 -17 46 -51 36 -90 -3 -13 -36 -85 -72 -159 l-67 -134 -71 46
c-39 25 -72 47 -74 48 -7 3 132 280 146 291 23 17 67 16 102 -2z m-2441 -420
c37 -20 82 -48 99 -63 31 -26 32 -27 14 -50 -17 -22 -19 -22 -55 -7 -72 30
-108 17 -218 -78 -26 -23 -47 -43 -45 -45 2 -2 45 11 94 29 l91 31 73 -27 c83
-31 122 -66 114 -100 -4 -14 0 -28 8 -35 21 -16 30 -68 16 -85 -9 -11 -7 -21
9 -44 22 -30 28 -71 12 -71 -5 0 -32 5 -60 12 -65 15 -116 0 -161 -45 -30 -30
-31 -35 -26 -87 3 -30 9 -82 12 -116 l6 -61 -91 -181 c-221 -440 -452 -790
-628 -952 -147 -135 -354 -249 -527 -292 -102 -24 -94 -29 -186 92 -115 151
-187 287 -221 419 -24 95 -24 179 1 272 11 41 23 89 27 107 4 21 14 37 27 42
29 11 203 40 240 40 l31 0 -40 -21 c-56 -29 -114 -87 -136 -134 -21 -46 -24
-119 -6 -154 16 -32 37 -39 37 -11 0 52 84 156 156 193 16 8 145 58 286 111
461 172 588 228 642 284 14 16 43 69 63 118 36 89 36 89 25 164 -6 41 -34 158
-62 260 -27 101 -50 199 -50 217 0 37 61 109 167 196 97 79 142 107 170 107
14 0 55 -16 92 -35z m2191 -6 c74 -50 226 -192 246 -230 15 -30 14 -35 -76
-372 -42 -159 -42 -211 0 -312 18 -44 45 -93 59 -108 40 -45 218 -125 546
-247 165 -62 329 -126 364 -142 79 -38 146 -104 163 -163 7 -23 18 -44 23 -46
6 -2 18 12 28 31 19 38 16 87 -8 147 -18 43 -88 111 -138 134 -41 18 -41 19
-12 19 38 0 205 -27 235 -38 18 -7 28 -28 51 -108 34 -115 38 -212 13 -313
-32 -133 -159 -356 -282 -495 -29 -34 -35 -36 -70 -30 -206 35 -444 166 -617
339 -172 172 -394 515 -602 932 l-86 172 13 99 c7 55 10 111 6 126 -4 15 -23
37 -48 53 -44 29 -88 35 -165 20 -51 -10 -54 -2 -23 57 16 29 18 41 10 51 -14
16 4 85 22 85 5 0 7 12 3 29 -9 42 26 74 117 106 l78 28 86 -33 c47 -17 88
-30 90 -27 7 7 -108 102 -146 122 -36 19 -68 19 -112 0 -34 -13 -36 -13 -58 9
l-22 24 62 42 c71 48 136 79 166 80 12 0 50 -19 84 -41z m-2041 -650 c42 -9
51 -15 62 -42 7 -18 71 -151 142 -297 71 -146 133 -276 138 -289 14 -36 -5
-75 -47 -94 -45 -22 -77 -21 -97 1 -8 9 -68 126 -131 258 -110 229 -116 245
-116 305 -1 35 -5 84 -10 109 -7 40 -6 60 5 60 2 0 26 -5 54 -11z m1774 -24
c-13 -179 -8 -165 -138 -435 -140 -294 -145 -299 -220 -262 -85 41 -86 32 80
379 81 169 152 313 157 318 11 12 87 34 108 31 10 -1 14 -11 13 -31z m-3126
-274 c57 -12 135 -33 175 -47 89 -32 203 -93 191 -103 -4 -4 -46 -22 -93 -39
-84 -31 -87 -31 -275 -31 -145 0 -217 -5 -305 -20 -64 -11 -123 -23 -133 -27
-24 -9 -22 1 27 128 25 62 50 126 56 142 l11 29 122 -6 c67 -3 168 -15 224
-26z m4824 -121 c31 -80 56 -146 55 -147 -2 -2 -44 6 -94 17 -112 25 -313 39
-447 33 -94 -5 -105 -3 -184 26 -128 48 -127 42 -10 100 159 79 348 120 534
117 l89 -1 57 -145z m-2183 -975 c83 -20 131 -45 175 -94 85 -94 71 -251 -30
-342 -21 -19 -53 -41 -71 -48 l-33 -14 33 -22 c55 -37 71 -81 93 -242 8 -65
20 -136 25 -158 5 -22 8 -40 7 -41 -5 -3 -201 16 -204 20 -9 8 -22 81 -33 176
-15 130 -33 178 -76 196 -67 28 -70 25 -77 -83 -4 -54 -7 -140 -7 -190 l0 -93
-100 0 -100 0 0 469 0 470 23 4 c59 11 316 6 375 -8z m-999 -67 c40 -126 111
-368 164 -563 71 -262 82 -304 76 -309 -2 -2 -45 -6 -95 -8 l-92 -4 -29 105
c-34 120 -16 109 -154 96 l-66 -6 -10 -105 c-5 -57 -13 -107 -16 -110 -8 -9
-176 -28 -183 -22 -10 11 104 950 118 963 6 6 158 22 220 24 l46 1 21 -62z
m1856 -16 l100 -18 12 -144 c18 -212 33 -521 27 -531 -3 -5 -2 -9 3 -9 4 0 28
51 53 113 67 167 239 510 253 504 7 -2 58 -14 115 -27 73 -17 102 -27 102 -38
0 -36 -158 -913 -166 -921 -4 -4 -152 27 -165 35 -6 3 65 435 90 553 18 84 14
80 -50 -50 -33 -68 -99 -196 -145 -285 l-84 -161 -66 12 c-36 7 -66 14 -68 16
-2 2 -9 81 -16 174 -7 94 -18 238 -24 320 l-11 150 -65 -303 c-36 -167 -68
-309 -72 -315 -4 -7 -28 -7 -83 0 -42 6 -78 13 -80 15 -4 4 189 886 200 916 6
15 17 15 140 -6z m-2739 -69 c3 -21 10 -55 14 -76 10 -45 20 -40 -133 -71 -65
-13 -120 -26 -122 -28 -5 -4 41 -228 48 -234 1 -1 52 9 112 22 61 13 115 24
120 24 11 0 39 -139 31 -148 -3 -2 -47 -13 -98 -23 -51 -10 -102 -21 -114 -24
-21 -5 -20 -7 21 -195 23 -104 41 -190 41 -191 -4 -3 -192 -47 -193 -45 -4 4
-223 899 -223 911 0 13 71 32 335 89 154 33 153 33 161 -11z"/>
<path d="M4734 9438 c-62 -125 -168 -243 -294 -328 -52 -35 -184 -106 -230
-123 -43 -16 25 -5 86 14 185 56 338 180 416 334 25 49 61 155 53 155 -3 0
-17 -24 -31 -52z"/>
<path d="M4920 9474 c1 -28 53 -154 81 -195 59 -87 163 -180 249 -224 53 -27
193 -75 218 -75 9 0 -34 25 -94 55 -191 95 -338 232 -418 386 -20 39 -36 63
-36 53z"/>
<path d="M3830 8752 c-41 -20 -80 -75 -79 -111 0 -24 1 -23 12 9 14 40 63 76
116 86 54 11 165 -9 368 -65 317 -88 362 -95 583 -95 225 -1 247 3 595 96 333
89 430 86 476 -15 16 -37 19 -39 19 -16 0 36 -39 91 -80 112 -48 25 -99 18
-315 -43 -346 -97 -535 -126 -760 -117 -195 8 -321 33 -709 141 -146 41 -177
43 -226 18z"/>
<path d="M3999 8661 c-45 -14 -68 -31 -84 -61 -24 -47 -18 -68 8 -29 12 18 34
40 47 47 41 22 186 9 350 -31 291 -71 298 -72 520 -71 221 0 203 -2 545 79
159 37 270 45 315 22 13 -7 35 -28 47 -46 26 -38 30 -27 9 24 -39 91 -145 92
-511 5 -177 -42 -265 -54 -415 -53 -148 0 -271 18 -450 63 -111 28 -297 61
-336 59 -11 0 -31 -4 -45 -8z"/>
<path d="M4957 8338 c-58 -77 -90 -233 -85 -403 l3 -100 75 -2 75 -3 -28 25
c-15 14 -35 25 -43 25 -11 0 -14 26 -14 148 0 159 11 245 40 304 22 47 10 49
-23 6z"/>
<path d="M4354 8250 c-55 -22 -70 -95 -29 -135 21 -22 33 -25 93 -25 86 0 122
22 122 75 0 47 -8 64 -41 80 -30 16 -111 19 -145 5z"/>
<path d="M5224 8251 c-55 -24 -70 -96 -29 -136 21 -22 33 -25 95 -25 62 0 74
3 95 25 34 33 34 83 0 115 -19 18 -39 24 -83 27 -31 1 -67 -1 -78 -6z"/>
<path d="M4410 7780 c-25 -50 -25 -100 0 -149 19 -39 73 -81 103 -81 8 0 34
-16 58 -36 159 -132 387 -137 535 -10 22 19 57 38 77 41 56 11 99 44 126 98
26 53 24 91 -9 145 l-21 34 -44 -40 c-61 -57 -88 -59 -229 -23 -65 17 -130 31
-145 31 -15 0 -81 -13 -147 -30 -65 -16 -127 -30 -137 -30 -29 0 -95 38 -113
65 -22 34 -30 32 -54 -15z m555 -218 l69 -18 -44 -18 c-67 -28 -178 -32 -256
-11 -70 19 -91 35 -47 36 15 0 57 9 93 19 70 19 79 19 185 -8z"/>
<path d="M5106 3639 c-3 -8 -6 -74 -8 -147 l-3 -132 40 0 c88 0 147 60 148
150 1 85 -36 127 -123 137 -37 4 -51 2 -54 -8z"/>
<path d="M4126 3515 c-17 -170 -27 -263 -32 -304 l-6 -44 72 6 c40 3 74 8 76
10 3 3 -87 356 -100 392 -2 6 -6 -21 -10 -60z"/>
<path d="M3540 1945 c0 -178 1 -185 20 -185 18 0 20 7 20 74 l0 73 39 7 c57 9
91 53 91 117 0 73 -29 99 -110 99 l-60 0 0 -185z"/>
<path d="M3940 1945 c0 -178 1 -185 20 -185 18 0 20 7 20 80 0 78 1 80 25 80
30 0 44 -25 59 -100 9 -47 15 -56 35 -58 17 -3 22 0 19 10 -3 7 -11 40 -18 72
-6 32 -20 66 -31 77 -17 17 -17 20 -4 25 21 8 45 56 45 89 0 33 -24 81 -45 89
-9 3 -41 6 -71 6 l-54 0 0 -185z"/>
<path d="M4340 1945 l0 -185 75 0 c59 0 75 3 75 14 0 11 -15 16 -52 18 l-53 3
-3 73 -3 72 51 0 c38 0 50 4 50 15 0 11 -12 15 -50 15 l-50 0 0 65 0 65 50 0
c38 0 50 4 50 15 0 12 -14 15 -70 15 l-70 0 0 -185z"/>
<path d="M4716 1968 c-4 -90 -10 -173 -13 -185 -4 -18 -1 -23 16 -23 17 0 21
7 22 33 1 17 4 84 8 147 l6 115 27 -110 c59 -234 62 -236 107 -57 46 181 50
185 50 51 1 -147 7 -179 33 -179 16 0 19 5 15 23 -3 12 -9 95 -13 185 l-7 163
-26 -3 c-24 -3 -27 -10 -60 -147 l-35 -145 -36 145 c-34 136 -37 144 -62 147
l-25 3 -7 -163z"/>
<path d="M5510 1978 c0 -167 7 -194 53 -216 40 -19 85 -6 108 31 16 28 19 52
19 185 0 145 -1 152 -20 152 -19 0 -20 -7 -20 -148 0 -157 -9 -192 -50 -192
-41 0 -50 35 -50 192 0 141 -1 148 -20 148 -19 0 -20 -7 -20 -152z"/>
<path d="M5946 2058 c-3 -40 -9 -124 -12 -185 -6 -111 -6 -113 15 -113 20 0
21 5 21 88 0 48 3 111 7 140 l6 53 35 -141 c46 -184 54 -183 102 10 l37 145 7
-147 c8 -139 9 -148 28 -148 19 0 20 4 14 98 -19 292 -16 272 -41 272 -27 0
-24 8 -61 -152 -16 -71 -31 -128 -34 -128 -3 0 -20 63 -38 140 -31 130 -35
140 -57 140 -21 0 -23 -5 -29 -72z"/>
<path d="M0 400 l0 -400 4845 0 4845 0 0 400 0 400 -4845 0 -4845 0 0 -400z
m1395 106 c25 -11 33 -19 29 -30 -7 -19 -5 -19 -40 -1 -36 18 -55 19 -78 2
-28 -21 -9 -45 49 -62 87 -25 108 -74 54 -127 -29 -29 -33 -30 -90 -25 -68 6
-72 8 -64 29 5 13 12 14 40 5 50 -15 100 1 100 33 0 16 -8 28 -25 36 -87 40
-105 51 -108 67 -14 70 53 106 133 73z m587 -48 l3 -62 36 32 c20 18 45 32 55
32 14 0 9 -9 -21 -40 l-39 -40 42 -60 c40 -57 41 -60 20 -60 -16 0 -32 14 -53
45 -16 25 -33 45 -37 45 -5 0 -8 -20 -8 -45 0 -38 -3 -45 -20 -45 -19 0 -20 7
-20 130 0 122 1 130 20 130 16 0 19 -8 22 -62z m-1353 -24 c12 -15 21 -40 21
-55 0 -29 0 -29 -65 -29 -72 0 -83 -12 -44 -51 17 -17 30 -20 65 -16 43 4 59
-5 28 -17 -45 -17 -106 3 -123 41 -45 98 56 206 118 127z m456 3 c20 -16 28
-35 32 -69 5 -42 3 -50 -25 -78 -41 -41 -83 -41 -124 0 -28 28 -30 36 -25 78
9 82 84 119 142 69z m622 8 c30 -21 44 -75 32 -120 -25 -88 -143 -88 -168 0
-20 72 20 135 84 135 17 0 40 -7 52 -15z"/>
<path d="M986 424 c-50 -50 -21 -144 44 -144 48 0 80 50 66 104 -13 53 -75 75
-110 40z"/>
</g>
</svg>
